<svg version="1.1" id="Layer_1" xmlns="http://www.w3.org/2000/svg" xmlns:xlink="http://www.w3.org/1999/xlink" x="0px" y="0px"
	 width="100%" viewBox="0 0 500 500" enable-background="new 0 0 500 500" xml:space="preserve">
<path fill="#000000" opacity="1.000000" stroke="none" 
	d="
M334.000000,501.000000 
	C222.666687,501.000000 111.833389,501.000000 1.000059,501.000000 
	C1.000040,334.333405 1.000040,167.666794 1.000020,1.000149 
	C167.666565,1.000099 334.333130,1.000099 500.999756,1.000050 
	C500.999847,167.666519 500.999847,334.333038 500.999939,500.999786 
	C445.500000,501.000000 390.000000,501.000000 334.000000,501.000000 
M311.038635,376.889801 
	C311.038635,376.889801 311.088440,376.624390 311.981689,376.656799 
	C315.477600,376.610168 318.974152,376.590668 322.469238,376.509430 
	C326.166809,376.423492 325.834290,373.797058 325.944427,371.215149 
	C326.057922,368.554901 325.263336,367.072113 322.416656,367.075439 
	C316.088409,367.082855 309.760071,367.033661 303.431885,367.049042 
	C300.903839,367.055206 300.193268,368.318359 300.259583,370.869476 
	C300.475800,379.190063 300.387665,387.518677 300.406860,395.844208 
	C300.417511,400.459137 300.408752,405.074127 300.408752,410.020569 
	C304.338593,410.020569 307.396210,410.020569 310.692749,410.020569 
	C310.692749,407.372986 310.692749,405.086884 310.807861,402.248016 
	C310.775116,401.874664 310.742371,401.501282 310.920258,400.274536 
	C310.854095,398.822296 310.787933,397.370087 310.829651,395.184174 
	C311.208740,394.359924 311.587830,393.535675 312.526215,392.861023 
	C312.712433,392.810303 312.898651,392.759613 313.955475,392.834625 
	C316.581879,392.789581 319.208282,392.744568 322.618256,392.888306 
	C326.842133,390.663849 324.127228,387.508484 324.161469,384.587097 
	C321.845978,384.587097 319.967712,384.622925 318.091400,384.577515 
	C316.008392,384.527100 313.927216,384.402527 311.289459,383.978455 
	C311.099060,383.375458 310.908630,382.772491 310.933105,381.322845 
	C310.890656,379.890747 310.848206,378.458618 311.038635,376.889801 
M172.275620,167.095840 
	C168.513885,169.199631 164.942749,171.819016 160.949066,173.295410 
	C153.581650,176.019028 151.988068,181.409195 152.017685,188.466278 
	C152.156128,221.458344 152.069641,254.451355 152.060577,287.444031 
	C152.059357,291.863892 153.529922,294.931976 157.802200,297.361877 
	C187.405624,314.199463 216.887253,331.254608 246.244171,348.518463 
	C250.668686,351.120422 253.920456,350.729919 258.078857,348.290924 
	C278.426208,336.356781 298.931885,324.692902 319.356934,312.890839 
	C329.143005,307.236206 338.817596,301.385864 348.669434,295.849731 
	C351.219086,294.417023 352.033295,292.786102 352.026031,289.950012 
	C351.935150,254.457916 351.897064,218.965240 352.051270,183.473602 
	C352.068542,179.498505 350.354797,177.371368 347.268646,175.593933 
	C316.749786,158.017242 286.239410,140.425690 255.757187,122.785606 
	C253.188950,121.299370 251.090271,121.253822 248.409393,122.826279 
	C231.781921,132.578979 215.066116,142.182343 198.313156,151.718491 
	C195.584625,153.271622 194.250458,154.994568 194.264572,158.350494 
	C194.414490,194.007446 194.345398,229.665436 194.567688,265.321686 
	C194.580231,267.332367 196.098221,270.197174 197.785767,271.199860 
	C214.191223,280.947540 230.871109,290.234131 247.254135,300.018250 
	C251.015198,302.264404 253.855927,302.083893 257.327057,300.007690 
	C268.159851,293.528107 279.080933,287.196106 290.659241,280.739197 
	C295.952942,277.635254 301.362610,274.706177 306.469269,271.320160 
	C307.986938,270.313873 309.527252,268.044830 309.568573,266.318756 
	C309.843872,254.825790 309.845093,243.320145 309.580383,231.826828 
	C309.539948,230.071838 308.048248,227.834717 306.554382,226.736969 
	C303.523682,224.509903 299.996613,222.969864 296.738892,221.037476 
	C291.843781,218.133774 287.004272,215.136322 281.419434,211.739807 
	C290.103455,206.581894 297.878479,202.142700 305.438416,197.363312 
	C307.669647,195.952744 309.293274,193.581085 311.721069,191.116043 
	C313.242462,191.962524 315.910187,193.026566 318.020844,194.766388 
	C319.468140,195.959442 321.014404,198.085526 321.027893,199.806213 
	C321.216248,223.801926 321.228699,247.800430 320.995911,271.795471 
	C320.976166,273.830566 319.417053,276.718536 317.699463,277.737091 
	C297.258575,289.858734 276.642120,301.684021 256.100342,313.636322 
	C253.434601,315.187408 251.153778,315.378784 248.295502,313.707092 
	C227.789749,301.714142 207.141937,289.963379 186.686386,277.886475 
	C184.988220,276.883881 183.411453,274.049805 183.400162,272.057465 
	C183.199905,236.734695 183.255585,201.410507 183.233322,166.086624 
	C183.232422,164.659729 183.008041,163.232956 182.793808,160.690857 
	C179.004395,163.127823 175.998672,165.060791 172.275620,167.095840 
M341.956329,388.842072 
	C337.250031,395.614380 332.543732,402.386719 327.785004,409.234436 
	C341.017395,414.914856 343.569855,403.261475 349.573883,396.380524 
	C351.598541,399.160461 353.830841,401.453888 355.146271,404.188324 
	C358.107758,410.344727 362.233887,411.509766 371.678070,409.106232 
	C367.788116,403.724609 363.889099,398.604187 360.287079,393.282776 
	C354.946686,385.393341 354.936554,388.457336 360.308289,380.852173 
	C363.283569,376.639862 366.242310,372.415863 369.162292,368.262909 
	C358.517242,363.728058 354.075317,370.699982 349.603516,378.246582 
	C346.853149,374.408966 345.250732,370.352600 342.280182,368.546692 
	C339.383057,366.785461 335.087463,367.324615 331.405853,366.853851 
	C331.185577,367.407593 330.965302,367.961304 330.745026,368.515045 
	C333.013611,371.907623 335.424408,375.215607 337.507538,378.718475 
	C339.307068,381.744446 340.734070,384.991974 341.956329,388.842072 
M160.478302,377.579834 
	C160.098709,371.754761 158.064835,368.874847 152.472931,367.969147 
	C147.760406,367.205902 142.898468,367.384521 138.106430,367.085968 
	C134.840057,366.882477 133.892136,368.295746 133.948685,371.548218 
	C134.110229,380.841095 133.886490,390.140564 133.828201,399.437500 
	C133.806900,402.835205 133.824768,406.233185 133.824768,409.840820 
	C141.160583,409.840820 147.465607,410.052704 153.749115,409.776001 
	C159.088486,409.540833 162.811203,405.675964 163.903549,400.465881 
	C165.208191,394.243286 162.460312,390.017975 158.080307,387.363464 
	C158.997467,383.996643 159.760986,381.193817 160.478302,377.579834 
M269.703857,369.997375 
	C264.420746,383.195068 259.137634,396.392761 253.682022,410.021301 
	C257.086792,410.021301 259.149841,410.421265 260.950897,409.905823 
	C262.661621,409.416290 265.118469,408.236694 265.470490,406.894531 
	C266.686279,402.259003 269.310394,400.827423 273.792053,401.439819 
	C276.077423,401.752075 278.501404,401.204865 280.738129,401.659454 
	C282.050873,401.926239 283.644562,403.153839 284.208344,404.368591 
	C287.078705,410.553223 290.243011,411.795044 296.731598,408.810913 
	C291.773224,396.211151 286.883484,383.578613 281.817932,371.016998 
	C279.828156,366.082672 274.080048,365.338928 269.703857,369.997375 
M252.886200,371.438995 
	C253.356247,368.313934 252.291428,366.935852 248.861954,367.035553 
	C241.715286,367.243378 234.557114,367.143524 227.405350,367.046387 
	C224.208069,367.002991 222.555756,367.903320 222.515564,371.565857 
	C222.473877,375.364777 224.060318,376.590820 227.539124,376.482880 
	C229.137863,376.433319 230.748489,376.766510 232.271576,376.917938 
	C232.271576,386.816559 232.181091,396.251526 232.364410,405.681183 
	C232.393524,407.178680 233.300156,409.548340 234.406128,409.986023 
	C240.032562,412.212830 243.021118,409.980377 243.037201,403.954071 
	C243.061066,395.013733 243.043381,386.073273 243.043381,376.758881 
	C245.462051,376.642059 247.265106,376.403351 249.049423,376.502350 
	C252.153564,376.674622 253.304153,375.264160 252.886200,371.438995 
M180.719528,373.739197 
	C180.716354,373.240143 180.645477,372.730652 180.720627,372.243683 
	C181.394623,367.876282 179.214981,366.932343 175.260483,366.946869 
	C171.269974,366.961517 170.138306,368.396729 170.218658,372.276947 
	C170.452774,383.583923 170.466949,394.901581 170.247574,406.208862 
	C170.158401,410.805084 172.986984,410.125854 175.824127,410.278015 
	C178.907394,410.443359 180.840363,410.072083 180.759598,406.123383 
	C180.545319,395.648224 180.708206,385.165283 180.719528,373.739197 
M217.248428,372.204712 
	C215.935837,366.915039 211.144180,367.533234 207.437317,366.710419 
	C200.682922,365.211121 193.219727,369.247375 191.094757,375.115112 
	C188.793930,381.468445 191.594604,387.337036 198.695877,390.932159 
	C200.176086,391.681519 202.053589,391.938599 203.185989,393.014191 
	C204.901062,394.643219 206.123444,396.790955 207.555145,398.718323 
	C205.086349,399.493530 202.516693,401.111389 200.174210,400.831024 
	C197.234741,400.479218 194.481491,398.571503 191.716537,397.365265 
	C185.938309,404.233795 186.703369,407.466644 194.916794,409.649384 
	C198.368179,410.566559 202.157333,410.807892 205.732361,410.542023 
	C213.420563,409.970215 217.821014,406.132935 218.882843,399.861725 
	C219.900711,393.850159 217.048904,389.178040 210.217636,385.669891 
	C207.563705,384.306946 204.795441,383.118835 202.316193,381.490356 
	C201.489029,380.947083 200.967453,379.221008 201.116760,378.148468 
	C201.225204,377.369476 202.600281,376.339478 203.529282,376.197388 
	C205.109970,375.955688 207.100677,375.787933 208.362640,376.532379 
	C213.146729,379.354431 215.292557,376.850220 217.248428,372.204712 
M191.922852,439.883728 
	C192.553284,441.200928 193.183716,442.518097 193.814133,443.835297 
	C194.758133,442.053833 195.702133,440.272339 196.509277,438.749146 
	C198.160110,438.749146 200.031525,438.749146 201.997635,438.749146 
	C202.038818,439.575623 201.890015,440.798828 202.224579,441.871277 
	C202.460342,442.626953 203.352570,443.177826 203.951675,443.820160 
	C204.589859,443.195129 205.756134,442.590179 205.780838,441.941772 
	C205.945450,437.619415 205.866226,433.287781 205.866226,428.959137 
	C205.386932,428.834442 204.907623,428.709778 204.428329,428.585083 
	C202.708954,430.419739 200.989578,432.254395 199.287643,434.070404 
	C197.022171,432.086853 195.044754,430.355499 191.919769,427.619385 
	C191.919769,432.500671 191.919769,435.765930 191.922852,439.883728 
M223.739136,431.591980 
	C223.742126,434.747070 223.634079,437.908569 223.815598,441.053345 
	C223.870209,441.999237 224.730606,442.898590 225.221863,443.819275 
	C225.986420,442.947693 226.983704,442.181610 227.441803,441.171112 
	C227.807266,440.364990 227.515533,439.260925 227.515533,438.430298 
	C229.718307,438.430298 231.644821,438.430298 233.862274,438.430298 
	C233.903397,438.723846 233.875183,439.384888 234.098709,439.945526 
	C234.623367,441.261475 235.268433,442.529358 235.864746,443.816711 
	C236.556458,442.499207 237.736420,441.220490 237.844864,439.856628 
	C238.127319,436.304016 237.939850,432.714050 237.939850,429.379517 
	C237.039536,429.119904 236.813965,428.982666 236.733276,429.042145 
	C234.668427,430.562805 232.618713,432.104034 230.460434,433.721100 
	C229.202652,432.402710 228.094620,430.886169 226.630035,429.897949 
	C226.114548,429.550110 224.725708,430.496582 223.739136,431.591980 
M163.023544,429.386230 
	C158.670883,433.258575 157.885269,438.626862 161.200134,441.845856 
	C164.706482,445.250763 170.372147,445.227295 172.892563,440.981201 
	C174.224014,438.738159 174.366348,434.888885 173.410553,432.390228 
	C171.796234,428.169891 167.783096,427.856445 163.023544,429.386230 
M266.681213,432.124756 
	C266.049164,431.029999 265.417084,429.935272 264.785034,428.840515 
	C264.161957,429.946228 263.187012,430.992798 262.989197,432.169952 
	C262.579803,434.606079 262.583832,437.111664 262.417877,439.588684 
	C261.828735,439.657745 261.239594,439.726837 260.650452,439.795929 
	C260.187775,438.459259 259.528839,437.152954 259.316101,435.777618 
	C259.091400,434.324951 259.493622,432.769958 259.232941,431.330109 
	C259.070404,430.432343 258.187256,429.665039 257.627472,428.839203 
	C256.978333,429.596466 255.842865,430.309692 255.769531,431.119141 
	C255.531494,433.746918 255.002029,436.671051 255.888260,438.980988 
	C256.667236,441.011383 259.360107,443.832397 260.916840,443.661102 
	C262.952087,443.437103 265.190613,440.897247 266.407990,438.809296 
	C267.276703,437.319305 266.608246,434.933075 266.681213,432.124756 
M284.153534,435.681183 
	C284.158630,436.675476 283.972107,437.718567 284.210205,438.653503 
	C284.655365,440.401184 285.346893,442.086060 285.935913,443.797089 
	C286.728180,442.267426 287.503540,440.728485 288.329773,439.217377 
	C288.463409,438.972900 288.823181,438.852112 289.183716,438.600739 
	C291.138611,440.327240 293.111725,442.069855 295.715759,444.369659 
	C295.715759,438.628082 295.715759,434.046326 295.715759,429.464600 
	C295.248657,429.209717 294.781555,428.954834 294.314453,428.699951 
	C293.263031,430.381927 292.211639,432.063934 291.026642,433.959625 
	C289.278870,432.338837 287.345673,430.546082 284.169739,427.600922 
	C284.169739,431.021027 284.169739,432.917572 284.153534,435.681183 
M131.731247,433.426239 
	C130.546539,441.173859 135.294830,445.639069 142.696289,442.815369 
	C141.177795,441.620819 139.797302,440.798523 138.770737,439.657745 
	C137.597702,438.354248 136.085037,436.805725 135.995987,435.288788 
	C135.944565,434.412476 138.417465,433.397827 139.740891,432.427277 
	C140.543625,431.838593 141.320862,431.215179 142.109558,430.607391 
	C141.189621,429.830048 139.865509,428.202545 139.416580,428.415985 
	C136.867554,429.627716 134.527756,431.279602 131.731247,433.426239 
M371.115540,431.071472 
	C371.562256,430.682129 372.008972,430.292816 371.886658,430.399414 
	C369.322205,430.691650 365.979370,431.072571 362.457947,431.473846 
	C365.879944,434.305023 362.984558,440.805237 367.989685,444.230255 
	C369.109985,439.545746 370.057587,435.583405 371.115540,431.071472 
M335.319580,431.079376 
	C340.810181,433.864441 335.575531,439.846893 339.797913,444.250549 
	C341.094940,439.132568 342.217651,434.702423 343.577087,429.338257 
	C341.161774,429.622559 338.168304,429.974945 335.319580,431.079376 
M313.559082,438.100708 
	C313.938995,440.070251 314.318939,442.039764 314.698853,444.009277 
	C315.209473,444.047150 315.720062,444.084991 316.230682,444.122864 
	C316.640808,442.932587 317.314636,441.762756 317.408722,440.548004 
	C317.638641,437.579254 317.717499,434.585052 317.599945,431.611298 
	C317.563934,430.701172 316.692810,429.824066 316.204102,428.931854 
	C315.383148,429.724579 314.042816,430.408691 313.849579,431.332672 
	C313.450256,433.242188 313.661896,435.279449 313.559082,438.100708 
z"/>
<path fill="#C3A533" opacity="1.000000" stroke="none" 
	d="
M289.967743,280.806885 
	C279.080933,287.196106 268.159851,293.528107 257.327057,300.007690 
	C253.855927,302.083893 251.015198,302.264404 247.254135,300.018250 
	C230.871109,290.234131 214.191223,280.947540 197.785767,271.199860 
	C196.098221,270.197174 194.580231,267.332367 194.567688,265.321686 
	C194.345398,229.665436 194.414490,194.007446 194.264572,158.350494 
	C194.250458,154.994568 195.584625,153.271622 198.313156,151.718491 
	C215.066116,142.182343 231.781921,132.578979 248.409393,122.826279 
	C251.090271,121.253822 253.188950,121.299370 255.757187,122.785606 
	C286.239410,140.425690 316.749786,158.017242 347.268646,175.593933 
	C350.354797,177.371368 352.068542,179.498505 352.051270,183.473602 
	C351.897064,218.965240 351.935150,254.457916 352.026031,289.950012 
	C352.033295,292.786102 351.219086,294.417023 348.669434,295.849731 
	C338.817596,301.385864 329.143005,307.236206 319.356934,312.890839 
	C298.931885,324.692902 278.426208,336.356781 258.078857,348.290924 
	C253.920456,350.729919 250.668686,351.120422 246.244171,348.518463 
	C216.887253,331.254608 187.405624,314.199463 157.802200,297.361877 
	C153.529922,294.931976 152.059357,291.863892 152.060577,287.444031 
	C152.069641,254.451355 152.156128,221.458344 152.017685,188.466278 
	C151.988068,181.409195 153.581650,176.019028 160.949066,173.295410 
	C164.942749,171.819016 168.513885,169.199631 172.942078,167.086197 
	C173.813843,167.103546 174.019135,167.130554 174.070480,167.459991 
	C169.744965,170.413193 165.541504,173.015366 161.411102,175.728775 
	C157.507965,178.292877 153.841019,180.683762 153.874344,186.470352 
	C154.068176,220.123276 153.997574,253.777939 153.927368,287.431824 
	C153.920334,290.799072 155.070511,293.064575 158.005432,294.769684 
	C167.493790,300.282166 176.842560,306.035339 186.340805,311.530334 
	C206.585205,323.242218 226.827377,334.961945 247.253540,346.350128 
	C249.638977,347.680084 253.823166,348.160675 256.073639,346.965027 
	C269.368530,339.901367 282.354279,332.253571 295.413147,324.748596 
	C311.199219,315.676300 326.996735,306.622437 342.697601,297.404297 
	C347.457123,294.609955 350.319519,290.943268 350.250061,284.553711 
	C349.895111,251.902985 349.979065,219.245880 350.175140,186.592621 
	C350.202881,181.972412 348.704437,179.057419 344.843170,176.856293 
	C331.713104,169.371384 318.618530,161.823578 305.548706,154.233749 
	C289.318878,144.808838 273.106689,135.353012 256.935822,125.827454 
	C253.560226,123.839043 250.555466,123.847382 247.139832,125.853233 
	C231.516434,135.028229 215.734619,143.936127 200.205750,153.266281 
	C198.220840,154.458878 196.210358,157.554901 196.193222,159.784378 
	C195.940903,192.603470 196.171570,225.426285 195.918854,258.245361 
	C195.860077,265.876129 199.042740,270.322845 205.552673,273.794830 
	C218.307037,280.597229 230.885818,287.755920 243.285858,295.186737 
	C252.587051,300.760529 252.883469,300.667419 261.848297,295.062897 
	C270.954437,289.370056 280.593597,284.529755 289.995453,279.564697 
	C289.978729,280.144318 289.970795,280.475555 289.967743,280.806885 
z"/>
<path fill="#BFA039" opacity="1.000000" stroke="none" 
	d="
M174.224442,167.157562 
	C174.019135,167.130554 173.813843,167.103546 173.300751,167.035156 
	C175.998672,165.060791 179.004395,163.127823 182.793808,160.690857 
	C183.008041,163.232956 183.232422,164.659729 183.233322,166.086624 
	C183.255585,201.410507 183.199905,236.734695 183.400162,272.057465 
	C183.411453,274.049805 184.988220,276.883881 186.686386,277.886475 
	C207.141937,289.963379 227.789749,301.714142 248.295502,313.707092 
	C251.153778,315.378784 253.434601,315.187408 256.100342,313.636322 
	C276.642120,301.684021 297.258575,289.858734 317.699463,277.737091 
	C319.417053,276.718536 320.976166,273.830566 320.995911,271.795471 
	C321.228699,247.800430 321.216248,223.801926 321.027893,199.806213 
	C321.014404,198.085526 319.468140,195.959442 318.020844,194.766388 
	C315.910187,193.026566 313.242462,191.962524 311.721069,191.116043 
	C309.293274,193.581085 307.669647,195.952744 305.438416,197.363312 
	C297.878479,202.142700 290.103455,206.581894 281.419434,211.739807 
	C287.004272,215.136322 291.843781,218.133774 296.738892,221.037476 
	C299.996613,222.969864 303.523682,224.509903 306.554382,226.736969 
	C308.048248,227.834717 309.539948,230.071838 309.580383,231.826828 
	C309.845093,243.320145 309.843872,254.825790 309.568573,266.318756 
	C309.527252,268.044830 307.986938,270.313873 306.469269,271.320160 
	C301.362610,274.706177 295.952942,277.635254 290.313477,280.773041 
	C289.970795,280.475555 289.978729,280.144318 290.222626,279.281555 
	C295.078796,275.827850 299.832703,273.083862 304.256470,269.883484 
	C305.726562,268.819916 307.145599,266.622131 307.227875,264.878662 
	C307.713806,254.583450 307.989471,244.266846 307.855896,233.963684 
	C307.829620,231.936676 306.191101,229.196793 304.459229,228.054596 
	C297.521545,223.479126 290.227509,219.447449 283.120422,215.123932 
	C279.561676,212.958984 279.438110,211.074066 282.782135,208.815369 
	C285.806793,206.772385 289.285706,205.351761 292.136414,203.112000 
	C297.681427,198.755386 306.209076,198.157181 308.797180,189.946991 
	C309.011353,189.267609 311.074493,188.589798 312.056854,188.827499 
	C318.802277,190.459686 322.775604,194.959137 322.828857,201.901749 
	C323.005096,224.885834 322.936066,247.872177 322.870941,270.857391 
	C322.859100,275.038025 321.573090,278.642303 317.354706,280.678009 
	C313.930145,282.330627 310.638428,284.271606 307.350494,286.192047 
	C292.449829,294.895386 277.671082,303.814331 262.624268,312.256134 
	C258.120270,314.782990 253.655182,319.143188 247.494812,315.550446 
	C226.569199,303.346558 205.539612,291.319977 184.691193,278.986603 
	C183.101318,278.046051 182.221451,275.325867 181.739990,273.262878 
	C181.305618,271.401611 181.993027,269.306061 181.976807,267.315552 
	C181.719147,235.688950 181.448654,204.062408 181.129059,172.436386 
	C181.052811,164.890717 180.965561,164.891602 174.224442,167.157562 
z"/>
<path fill="#DBB422" opacity="1.000000" stroke="none" 
	d="
M342.141052,388.491821 
	C340.734070,384.991974 339.307068,381.744446 337.507538,378.718475 
	C335.424408,375.215607 333.013611,371.907623 330.745026,368.515045 
	C330.965302,367.961304 331.185577,367.407593 331.405853,366.853851 
	C335.087463,367.324615 339.383057,366.785461 342.280182,368.546692 
	C345.250732,370.352600 346.853149,374.408966 349.603516,378.246582 
	C354.075317,370.699982 358.517242,363.728058 369.162292,368.262909 
	C366.242310,372.415863 363.283569,376.639862 360.308289,380.852173 
	C354.936554,388.457336 354.946686,385.393341 360.287079,393.282776 
	C363.889099,398.604187 367.788116,403.724609 371.678070,409.106232 
	C362.233887,411.509766 358.107758,410.344727 355.146271,404.188324 
	C353.830841,401.453888 351.598541,399.160461 349.573883,396.380524 
	C343.569855,403.261475 341.017395,414.914856 327.785004,409.234436 
	C332.543732,402.386719 337.250031,395.614380 342.141052,388.491821 
z"/>
<path fill="#DDB721" opacity="1.000000" stroke="none" 
	d="
M160.501404,377.985413 
	C159.760986,381.193817 158.997467,383.996643 158.080307,387.363464 
	C162.460312,390.017975 165.208191,394.243286 163.903549,400.465881 
	C162.811203,405.675964 159.088486,409.540833 153.749115,409.776001 
	C147.465607,410.052704 141.160583,409.840820 133.824768,409.840820 
	C133.824768,406.233185 133.806900,402.835205 133.828201,399.437500 
	C133.886490,390.140564 134.110229,380.841095 133.948685,371.548218 
	C133.892136,368.295746 134.840057,366.882477 138.106430,367.085968 
	C142.898468,367.384521 147.760406,367.205902 152.472931,367.969147 
	C158.064835,368.874847 160.098709,371.754761 160.501404,377.985413 
M151.329483,401.278198 
	C154.425049,399.531616 154.395935,396.469391 152.490265,394.660889 
	C150.895065,393.147034 147.783478,393.231079 145.343338,392.607544 
	C144.806534,395.623535 144.269730,398.639496 143.593567,402.438416 
	C146.746689,402.045868 148.658615,401.807831 151.329483,401.278198 
M150.833832,378.737976 
	C149.089340,377.602264 147.344849,376.466553 145.600342,375.330841 
	C144.964737,377.771545 144.329132,380.212250 143.670685,382.740631 
	C147.763214,383.569458 150.345444,383.431641 150.833832,378.737976 
z"/>
<path fill="#DCB620" opacity="1.000000" stroke="none" 
	d="
M269.842438,369.630371 
	C274.080048,365.338928 279.828156,366.082672 281.817932,371.016998 
	C286.883484,383.578613 291.773224,396.211151 296.731598,408.810913 
	C290.243011,411.795044 287.078705,410.553223 284.208344,404.368591 
	C283.644562,403.153839 282.050873,401.926239 280.738129,401.659454 
	C278.501404,401.204865 276.077423,401.752075 273.792053,401.439819 
	C269.310394,400.827423 266.686279,402.259003 265.470490,406.894531 
	C265.118469,408.236694 262.661621,409.416290 260.950897,409.905823 
	C259.149841,410.421265 257.086792,410.021301 253.682022,410.021301 
	C259.137634,396.392761 264.420746,383.195068 269.842438,369.630371 
M273.117004,392.324860 
	C275.059723,392.324860 277.002411,392.324860 279.670624,392.324860 
	C278.236450,388.632874 277.053558,385.587677 275.870636,382.542480 
	C275.349060,382.562744 274.827515,382.582977 274.305939,382.603210 
	C273.667969,385.797668 273.029968,388.992096 273.117004,392.324860 
z"/>
<path fill="#DBB422" opacity="1.000000" stroke="none" 
	d="
M252.885178,371.876099 
	C253.304153,375.264160 252.153564,376.674622 249.049423,376.502350 
	C247.265106,376.403351 245.462051,376.642059 243.043381,376.758881 
	C243.043381,386.073273 243.061066,395.013733 243.037201,403.954071 
	C243.021118,409.980377 240.032562,412.212830 234.406128,409.986023 
	C233.300156,409.548340 232.393524,407.178680 232.364410,405.681183 
	C232.181091,396.251526 232.271576,386.816559 232.271576,376.917938 
	C230.748489,376.766510 229.137863,376.433319 227.539124,376.482880 
	C224.060318,376.590820 222.473877,375.364777 222.515564,371.565857 
	C222.555756,367.903320 224.208069,367.002991 227.405350,367.046387 
	C234.557114,367.143524 241.715286,367.243378 248.861954,367.035553 
	C252.291428,366.935852 253.356247,368.313934 252.885178,371.876099 
z"/>
<path fill="#E5BA19" opacity="1.000000" stroke="none" 
	d="
M310.709595,401.127930 
	C310.742371,401.501282 310.775116,401.874664 310.464630,402.731445 
	C309.830139,403.802490 309.659241,404.506348 309.225037,404.955963 
	C307.915833,406.311859 306.504272,407.568939 305.132568,408.864502 
	C304.093689,407.275482 302.199493,405.709961 302.155029,404.093597 
	C301.871216,393.772400 302.005219,383.439972 301.977631,373.111328 
	C301.968231,369.596924 303.583832,367.924042 307.181000,368.030914 
	C311.175964,368.149628 315.209076,367.783234 319.158020,368.227844 
	C320.580872,368.388000 322.626862,370.090302 322.953430,371.436859 
	C323.633545,374.241089 321.450134,374.855103 318.962097,375.077026 
	C316.312622,375.313293 313.710968,376.085938 311.088440,376.624390 
	C311.088440,376.624390 311.038635,376.889801 310.632324,377.079529 
	C310.390106,378.902679 310.554169,380.536102 310.718231,382.169495 
	C310.908630,382.772491 311.099060,383.375458 311.783936,384.450562 
	C313.844543,385.246552 315.400940,385.784058 316.978638,385.856476 
	C323.071533,386.136169 323.417755,386.562347 321.834686,392.699554 
	C319.208282,392.744568 316.581879,392.789581 313.397400,392.659332 
	C312.495728,392.349976 312.204926,392.425781 311.966919,392.711426 
	C311.587830,393.535675 311.208740,394.359924 310.597107,395.845245 
	C310.479584,398.046844 310.594604,399.587402 310.709595,401.127930 
z"/>
<path fill="#D2AC22" opacity="1.000000" stroke="none" 
	d="
M180.720306,374.212341 
	C180.708206,385.165283 180.545319,395.648224 180.759598,406.123383 
	C180.840363,410.072083 178.907394,410.443359 175.824127,410.278015 
	C172.986984,410.125854 170.158401,410.805084 170.247574,406.208862 
	C170.466949,394.901581 170.452774,383.583923 170.218658,372.276947 
	C170.138306,368.396729 171.269974,366.961517 175.260483,366.946869 
	C179.214981,366.932343 181.394623,367.876282 180.720627,372.243683 
	C180.645477,372.730652 180.716354,373.240143 180.720306,374.212341 
z"/>
<path fill="#C9A935" opacity="1.000000" stroke="none" 
	d="
M217.094208,372.517273 
	C215.292557,376.850220 213.146729,379.354431 208.362640,376.532379 
	C207.100677,375.787933 205.109970,375.955688 203.529282,376.197388 
	C202.600281,376.339478 201.225204,377.369476 201.116760,378.148468 
	C200.967453,379.221008 201.489029,380.947083 202.316193,381.490356 
	C204.795441,383.118835 207.563705,384.306946 210.217636,385.669891 
	C217.048904,389.178040 219.900711,393.850159 218.882843,399.861725 
	C217.821014,406.132935 213.420563,409.970215 205.732361,410.542023 
	C202.157333,410.807892 198.368179,410.566559 194.916794,409.649384 
	C186.703369,407.466644 185.938309,404.233795 191.716537,397.365265 
	C194.481491,398.571503 197.234741,400.479218 200.174210,400.831024 
	C202.516693,401.111389 205.086349,399.493530 207.555145,398.718323 
	C206.123444,396.790955 204.901062,394.643219 203.185989,393.014191 
	C202.053589,391.938599 200.176086,391.681519 198.695877,390.932159 
	C191.594604,387.337036 188.793930,381.468445 191.094757,375.115112 
	C193.219727,369.247375 200.682922,365.211121 207.437317,366.710419 
	C211.144180,367.533234 215.935837,366.915039 217.094208,372.517273 
M201.584778,383.965942 
	C200.647125,381.910309 198.428253,379.182037 199.071655,377.956451 
	C200.039902,376.112122 202.920135,375.098724 205.169159,374.173676 
	C206.268555,373.721466 207.810257,374.488495 209.093109,374.301422 
	C210.650024,374.074371 212.144974,373.422607 213.666718,372.954590 
	C212.379272,371.696930 211.287476,369.719177 209.770309,369.306946 
	C203.388123,367.572784 196.143402,370.797546 193.001160,376.729950 
	C192.286667,378.078857 192.226822,380.626678 193.050629,381.765289 
	C194.909042,384.333801 197.361923,386.546356 199.846909,388.566711 
	C202.389877,390.634216 205.683578,391.899658 207.887283,394.234741 
	C211.204803,397.750061 209.273071,402.459686 204.440079,402.795593 
	C201.550156,402.996460 198.592331,401.920807 195.644424,401.716736 
	C194.223587,401.618408 192.755142,402.208252 191.308228,402.486481 
	C192.014999,403.838562 192.370773,405.791809 193.486618,406.443298 
	C199.813019,410.136963 206.429855,409.344666 212.495285,406.057373 
	C217.851318,403.154541 218.435471,394.998169 213.647415,391.201691 
	C210.194443,388.463745 206.028854,386.624542 201.584778,383.965942 
z"/>
<path fill="#BA9B41" opacity="1.000000" stroke="none" 
	d="
M311.535065,376.640594 
	C313.710968,376.085938 316.312622,375.313293 318.962097,375.077026 
	C321.450134,374.855103 323.633545,374.241089 322.953430,371.436859 
	C322.626862,370.090302 320.580872,368.388000 319.158020,368.227844 
	C315.209076,367.783234 311.175964,368.149628 307.181000,368.030914 
	C303.583832,367.924042 301.968231,369.596924 301.977631,373.111328 
	C302.005219,383.439972 301.871216,393.772400 302.155029,404.093597 
	C302.199493,405.709961 304.093689,407.275482 305.132568,408.864502 
	C306.504272,407.568939 307.915833,406.311859 309.225037,404.955963 
	C309.659241,404.506348 309.830139,403.802490 310.407074,403.007812 
	C310.692749,405.086884 310.692749,407.372986 310.692749,410.020569 
	C307.396210,410.020569 304.338593,410.020569 300.408752,410.020569 
	C300.408752,405.074127 300.417511,400.459137 300.406860,395.844208 
	C300.387665,387.518677 300.475800,379.190063 300.259583,370.869476 
	C300.193268,368.318359 300.903839,367.055206 303.431885,367.049042 
	C309.760071,367.033661 316.088409,367.082855 322.416656,367.075439 
	C325.263336,367.072113 326.057922,368.554901 325.944427,371.215149 
	C325.834290,373.797058 326.166809,376.423492 322.469238,376.509430 
	C318.974152,376.590668 315.477600,376.610168 311.535065,376.640594 
z"/>
<path fill="#BA9B41" opacity="1.000000" stroke="none" 
	d="
M191.921310,439.457458 
	C191.919769,435.765930 191.919769,432.500671 191.919769,427.619385 
	C195.044754,430.355499 197.022171,432.086853 199.287643,434.070404 
	C200.989578,432.254395 202.708954,430.419739 204.428329,428.585083 
	C204.907623,428.709778 205.386932,428.834442 205.866226,428.959137 
	C205.866226,433.287781 205.945450,437.619415 205.780838,441.941772 
	C205.756134,442.590179 204.589859,443.195129 203.951675,443.820160 
	C203.352570,443.177826 202.460342,442.626953 202.224579,441.871277 
	C201.890015,440.798828 202.038818,439.575623 201.997635,438.749146 
	C200.031525,438.749146 198.160110,438.749146 196.509277,438.749146 
	C195.702133,440.272339 194.758133,442.053833 193.814148,443.835297 
	C193.183716,442.518097 192.553284,441.200928 191.921310,439.457458 
z"/>
<path fill="#BA9B41" opacity="1.000000" stroke="none" 
	d="
M223.737381,431.222015 
	C224.725708,430.496582 226.114548,429.550110 226.630035,429.897949 
	C228.094620,430.886169 229.202652,432.402710 230.460434,433.721100 
	C232.618713,432.104034 234.668427,430.562805 236.733276,429.042145 
	C236.813965,428.982666 237.039536,429.119904 237.939850,429.379517 
	C237.939850,432.714050 238.127319,436.304016 237.844864,439.856628 
	C237.736420,441.220490 236.556458,442.499207 235.864746,443.816711 
	C235.268433,442.529358 234.623367,441.261475 234.098709,439.945526 
	C233.875183,439.384888 233.903397,438.723846 233.862274,438.430298 
	C231.644821,438.430298 229.718307,438.430298 227.515533,438.430298 
	C227.515533,439.260925 227.807266,440.364990 227.441803,441.171112 
	C226.983704,442.181610 225.986420,442.947693 225.221863,443.819275 
	C224.730606,442.898590 223.870209,441.999237 223.815598,441.053345 
	C223.634079,437.908569 223.742126,434.747070 223.737381,431.222015 
z"/>
<path fill="#BA9B41" opacity="1.000000" stroke="none" 
	d="
M163.381042,429.255493 
	C167.783096,427.856445 171.796234,428.169891 173.410553,432.390228 
	C174.366348,434.888885 174.224014,438.738159 172.892563,440.981201 
	C170.372147,445.227295 164.706482,445.250763 161.200134,441.845856 
	C157.885269,438.626862 158.670883,433.258575 163.381042,429.255493 
M168.666122,432.840851 
	C166.992157,433.352203 164.721497,433.397064 163.838318,434.526703 
	C163.165695,435.387054 163.765030,438.083344 164.718552,439.099091 
	C165.441055,439.868744 168.850601,439.584290 168.936218,439.239929 
	C169.412079,437.325531 169.237839,435.249573 168.666122,432.840851 
z"/>
<path fill="#BA9B41" opacity="1.000000" stroke="none" 
	d="
M266.653473,432.535767 
	C266.608246,434.933075 267.276703,437.319305 266.407990,438.809296 
	C265.190613,440.897247 262.952087,443.437103 260.916840,443.661102 
	C259.360107,443.832397 256.667236,441.011383 255.888260,438.980988 
	C255.002029,436.671051 255.531494,433.746918 255.769531,431.119141 
	C255.842865,430.309692 256.978333,429.596466 257.627472,428.839203 
	C258.187256,429.665039 259.070404,430.432343 259.232941,431.330109 
	C259.493622,432.769958 259.091400,434.324951 259.316101,435.777618 
	C259.528839,437.152954 260.187775,438.459259 260.650452,439.795929 
	C261.239594,439.726837 261.828735,439.657745 262.417877,439.588684 
	C262.583832,437.111664 262.579803,434.606079 262.989197,432.169952 
	C263.187012,430.992798 264.161957,429.946228 264.785034,428.840515 
	C265.417084,429.935272 266.049164,431.029999 266.653473,432.535767 
z"/>
<path fill="#BA9B41" opacity="1.000000" stroke="none" 
	d="
M284.161621,435.247650 
	C284.169739,432.917572 284.169739,431.021027 284.169739,427.600922 
	C287.345673,430.546082 289.278870,432.338837 291.026642,433.959625 
	C292.211639,432.063934 293.263031,430.381927 294.314453,428.699951 
	C294.781555,428.954834 295.248657,429.209717 295.715759,429.464600 
	C295.715759,434.046326 295.715759,438.628082 295.715759,444.369659 
	C293.111725,442.069855 291.138611,440.327240 289.183716,438.600739 
	C288.823181,438.852112 288.463409,438.972900 288.329773,439.217377 
	C287.503540,440.728485 286.728180,442.267426 285.935913,443.797089 
	C285.346893,442.086060 284.655365,440.401184 284.210205,438.653503 
	C283.972107,437.718567 284.158630,436.675476 284.161621,435.247650 
z"/>
<path fill="#BA9B41" opacity="1.000000" stroke="none" 
	d="
M131.924011,433.103973 
	C134.527756,431.279602 136.867554,429.627716 139.416580,428.415985 
	C139.865509,428.202545 141.189621,429.830048 142.109558,430.607391 
	C141.320862,431.215179 140.543625,431.838593 139.740891,432.427277 
	C138.417465,433.397827 135.944565,434.412476 135.995987,435.288788 
	C136.085037,436.805725 137.597702,438.354248 138.770737,439.657745 
	C139.797302,440.798523 141.177795,441.620819 142.696289,442.815369 
	C135.294830,445.639069 130.546539,441.173859 131.924011,433.103973 
z"/>
<path fill="#BA9B41" opacity="1.000000" stroke="none" 
	d="
M371.060364,431.346252 
	C370.057587,435.583405 369.109985,439.545746 367.989685,444.230255 
	C362.984558,440.805237 365.879944,434.305023 362.457947,431.473846 
	C365.979370,431.072571 369.322205,430.691650 371.886658,430.399414 
	C372.008972,430.292816 371.562256,430.682129 371.060364,431.346252 
z"/>
<path fill="#C9A935" opacity="1.000000" stroke="none" 
	d="
M335.247192,430.703339 
	C338.168304,429.974945 341.161774,429.622559 343.577087,429.338257 
	C342.217651,434.702423 341.094940,439.132568 339.797913,444.250549 
	C335.575531,439.846893 340.810181,433.864441 335.247192,430.703339 
z"/>
<path fill="#BA9B41" opacity="1.000000" stroke="none" 
	d="
M313.590668,437.682434 
	C313.661896,435.279449 313.450256,433.242188 313.849579,431.332672 
	C314.042816,430.408691 315.383148,429.724579 316.204102,428.931854 
	C316.692810,429.824066 317.563934,430.701172 317.599945,431.611298 
	C317.717499,434.585052 317.638641,437.579254 317.408722,440.548004 
	C317.314636,441.762756 316.640808,442.932587 316.230682,444.122864 
	C315.720062,444.084991 315.209473,444.047150 314.698853,444.009277 
	C314.318939,442.039764 313.938995,440.070251 313.590668,437.682434 
z"/>
<path fill="#BFA039" opacity="1.000000" stroke="none" 
	d="
M322.226471,392.793945 
	C323.417755,386.562347 323.071533,386.136169 316.978638,385.856476 
	C315.400940,385.784058 313.844543,385.246552 312.061829,384.616455 
	C313.927216,384.402527 316.008392,384.527100 318.091400,384.577515 
	C319.967712,384.622925 321.845978,384.587097 324.161469,384.587097 
	C324.127228,387.508484 326.842133,390.663849 322.226471,392.793945 
z"/>
<path fill="#BA9B41" opacity="1.000000" stroke="none" 
	d="
M310.825684,381.746155 
	C310.554169,380.536102 310.390106,378.902679 310.515869,377.147888 
	C310.848206,378.458618 310.890656,379.890747 310.825684,381.746155 
z"/>
<path fill="#BA9B41" opacity="1.000000" stroke="none" 
	d="
M310.814941,400.701233 
	C310.594604,399.587402 310.479584,398.046844 310.543182,396.212097 
	C310.787933,397.370087 310.854095,398.822296 310.814941,400.701233 
z"/>
<path fill="#BFA039" opacity="1.000000" stroke="none" 
	d="
M312.246582,392.786224 
	C312.204926,392.425781 312.495728,392.349976 312.962097,392.596497 
	C312.898651,392.759613 312.712433,392.810303 312.246582,392.786224 
z"/>
<path fill="#E7BD13" opacity="1.000000" stroke="none" 
	d="
M174.070480,167.459991 
	C180.965561,164.891602 181.052811,164.890717 181.129059,172.436386 
	C181.448654,204.062408 181.719147,235.688950 181.976807,267.315552 
	C181.993027,269.306061 181.305618,271.401611 181.739990,273.262878 
	C182.221451,275.325867 183.101318,278.046051 184.691193,278.986603 
	C205.539612,291.319977 226.569199,303.346558 247.494812,315.550446 
	C253.655182,319.143188 258.120270,314.782990 262.624268,312.256134 
	C277.671082,303.814331 292.449829,294.895386 307.350494,286.192047 
	C310.638428,284.271606 313.930145,282.330627 317.354706,280.678009 
	C321.573090,278.642303 322.859100,275.038025 322.870941,270.857391 
	C322.936066,247.872177 323.005096,224.885834 322.828857,201.901749 
	C322.775604,194.959137 318.802277,190.459686 312.056854,188.827499 
	C311.074493,188.589798 309.011353,189.267609 308.797180,189.946991 
	C306.209076,198.157181 297.681427,198.755386 292.136414,203.112000 
	C289.285706,205.351761 285.806793,206.772385 282.782135,208.815369 
	C279.438110,211.074066 279.561676,212.958984 283.120422,215.123932 
	C290.227509,219.447449 297.521545,223.479126 304.459229,228.054596 
	C306.191101,229.196793 307.829620,231.936676 307.855896,233.963684 
	C307.989471,244.266846 307.713806,254.583450 307.227875,264.878662 
	C307.145599,266.622131 305.726562,268.819916 304.256470,269.883484 
	C299.832703,273.083862 295.078796,275.827850 290.226501,279.032990 
	C280.593597,284.529755 270.954437,289.370056 261.848297,295.062897 
	C252.883469,300.667419 252.587051,300.760529 243.285858,295.186737 
	C230.885818,287.755920 218.307037,280.597229 205.552673,273.794830 
	C199.042740,270.322845 195.860077,265.876129 195.918854,258.245361 
	C196.171570,225.426285 195.940903,192.603470 196.193222,159.784378 
	C196.210358,157.554901 198.220840,154.458878 200.205750,153.266281 
	C215.734619,143.936127 231.516434,135.028229 247.139832,125.853233 
	C250.555466,123.847382 253.560226,123.839043 256.935822,125.827454 
	C273.106689,135.353012 289.318878,144.808838 305.548706,154.233749 
	C318.618530,161.823578 331.713104,169.371384 344.843170,176.856293 
	C348.704437,179.057419 350.202881,181.972412 350.175140,186.592621 
	C349.979065,219.245880 349.895111,251.902985 350.250061,284.553711 
	C350.319519,290.943268 347.457123,294.609955 342.697601,297.404297 
	C326.996735,306.622437 311.199219,315.676300 295.413147,324.748596 
	C282.354279,332.253571 269.368530,339.901367 256.073639,346.965027 
	C253.823166,348.160675 249.638977,347.680084 247.253540,346.350128 
	C226.827377,334.961945 206.585205,323.242218 186.340805,311.530334 
	C176.842560,306.035339 167.493790,300.282166 158.005432,294.769684 
	C155.070511,293.064575 153.920334,290.799072 153.927368,287.431824 
	C153.997574,253.777939 154.068176,220.123276 153.874344,186.470352 
	C153.841019,180.683762 157.507965,178.292877 161.411102,175.728775 
	C165.541504,173.015366 169.744965,170.413193 174.070480,167.459991 
M238.259659,259.248505 
	C241.570374,261.133667 245.021927,262.814056 248.149353,264.965637 
	C250.887894,266.849670 253.163193,266.684113 255.894028,265.030304 
	C262.427979,261.073334 269.130432,257.395569 275.690613,253.480667 
	C280.796265,250.433762 280.656799,244.853394 275.481659,241.810898 
	C261.886963,233.818512 248.295242,225.820877 234.665283,217.888992 
	C231.916946,216.289612 229.005249,214.970947 225.378754,213.119446 
	C225.378754,222.203323 226.146957,230.246460 225.191193,238.079239 
	C223.892822,248.719772 227.430161,255.548950 238.259659,259.248505 
M225.528412,205.124847 
	C225.528412,206.703812 225.528412,208.282776 225.528412,210.659470 
	C243.277267,200.408676 260.235565,190.710648 277.073059,180.807312 
	C280.364502,178.871368 280.123932,172.497467 276.845123,170.567978 
	C269.417633,166.197144 261.925049,161.926559 254.315140,157.886047 
	C253.039871,157.208939 250.746384,157.335205 249.428696,158.037857 
	C242.265228,161.857880 235.181046,165.846420 228.268372,170.100006 
	C226.910721,170.935410 225.699402,173.172180 225.658783,174.793655 
	C225.413330,184.591629 225.527725,194.398621 225.528412,205.124847 
z"/>
<path fill="#150D01" opacity="1.000000" stroke="none" 
	d="
M150.950012,401.424011 
	C148.658615,401.807831 146.746689,402.045868 143.593567,402.438416 
	C144.269730,398.639496 144.806534,395.623535 145.343353,392.607544 
	C147.783478,393.231079 150.895065,393.147034 152.490265,394.660889 
	C154.395935,396.469391 154.425049,399.531616 150.950012,401.424011 
z"/>
<path fill="#150D01" opacity="1.000000" stroke="none" 
	d="
M150.832489,379.117981 
	C150.345444,383.431641 147.763214,383.569458 143.670685,382.740631 
	C144.329132,380.212250 144.964737,377.771545 145.600342,375.330841 
	C147.344849,376.466553 149.089340,377.602264 150.832489,379.117981 
z"/>
<path fill="#150D01" opacity="1.000000" stroke="none" 
	d="
M272.754517,392.255707 
	C273.029968,388.992096 273.667969,385.797668 274.305939,382.603210 
	C274.827515,382.582977 275.349060,382.562744 275.870636,382.542480 
	C277.053558,385.587677 278.236450,388.632874 279.670624,392.324860 
	C277.002411,392.324860 275.059723,392.324860 272.754517,392.255707 
z"/>
<path fill="#EBBE11" opacity="1.000000" stroke="none" 
	d="
M201.882935,384.175232 
	C206.028854,386.624542 210.194443,388.463745 213.647415,391.201691 
	C218.435471,394.998169 217.851318,403.154541 212.495285,406.057373 
	C206.429855,409.344666 199.813019,410.136963 193.486618,406.443298 
	C192.370773,405.791809 192.014999,403.838562 191.308228,402.486481 
	C192.755142,402.208252 194.223587,401.618408 195.644424,401.716736 
	C198.592331,401.920807 201.550156,402.996460 204.440079,402.795593 
	C209.273071,402.459686 211.204803,397.750061 207.887283,394.234741 
	C205.683578,391.899658 202.389877,390.634216 199.846909,388.566711 
	C197.361923,386.546356 194.909042,384.333801 193.050629,381.765289 
	C192.226822,380.626678 192.286667,378.078857 193.001160,376.729950 
	C196.143402,370.797546 203.388123,367.572784 209.770309,369.306946 
	C211.287476,369.719177 212.379272,371.696930 213.666718,372.954590 
	C212.144974,373.422607 210.650024,374.074371 209.093109,374.301422 
	C207.810257,374.488495 206.268555,373.721466 205.169159,374.173676 
	C202.920135,375.098724 200.039902,376.112122 199.071655,377.956451 
	C198.428253,379.182037 200.647125,381.910309 201.882935,384.175232 
z"/>
<path fill="#150D01" opacity="1.000000" stroke="none" 
	d="
M168.976074,433.034851 
	C169.237839,435.249573 169.412079,437.325531 168.936218,439.239929 
	C168.850601,439.584290 165.441055,439.868744 164.718552,439.099091 
	C163.765030,438.083344 163.165695,435.387054 163.838318,434.526703 
	C164.721497,433.397064 166.992157,433.352203 168.976074,433.034851 
z"/>
<path fill="#040301" opacity="1.000000" stroke="none" 
	d="
M237.961121,259.029907 
	C227.430161,255.548950 223.892822,248.719772 225.191193,238.079239 
	C226.146957,230.246460 225.378754,222.203323 225.378754,213.119446 
	C229.005249,214.970947 231.916946,216.289612 234.665283,217.888992 
	C248.295242,225.820877 261.886963,233.818512 275.481659,241.810898 
	C280.656799,244.853394 280.796265,250.433762 275.690613,253.480667 
	C269.130432,257.395569 262.427979,261.073334 255.894028,265.030304 
	C253.163193,266.684113 250.887894,266.849670 248.149353,264.965637 
	C245.021927,262.814056 241.570374,261.133667 237.961121,259.029907 
z"/>
<path fill="#040200" opacity="1.000000" stroke="none" 
	d="
M225.525101,204.663727 
	C225.527725,194.398621 225.413330,184.591629 225.658783,174.793655 
	C225.699402,173.172180 226.910721,170.935410 228.268372,170.100006 
	C235.181046,165.846420 242.265228,161.857880 249.428696,158.037857 
	C250.746384,157.335205 253.039871,157.208939 254.315140,157.886047 
	C261.925049,161.926559 269.417633,166.197144 276.845123,170.567978 
	C280.123932,172.497467 280.364502,178.871368 277.073059,180.807312 
	C260.235565,190.710648 243.277267,200.408676 225.528412,210.659470 
	C225.528412,208.282776 225.528412,206.703812 225.525101,204.663727 
z"/>
</svg>